<svg width="48" height="48" viewBox="0 0 48 48" fill="none" xmlns="http://www.w3.org/2000/svg">
<path d="M48 24C48 37.2548 37.2548 48 24 48C10.7452 48 0 37.2548 0 24C0 10.7452 10.7452 0 24 0C37.2548 0 48 10.7452 48 24Z" fill="#003CFF"/>
<path d="M24.2 21.76H21.34V11.52C21.34 11.32 21.3 11.1333 21.22 10.96C21.1467 10.7867 21.0433 10.6367 20.91 10.51C20.7833 10.3767 20.6333 10.2733 20.46 10.2C20.2867 10.1267 20.1 10.09 19.9 10.09C19.7 10.09 19.5133 10.1267 19.34 10.2C19.1667 10.2733 19.0133 10.3767 18.88 10.51C18.7533 10.6367 18.6533 10.7867 18.58 10.96C18.5067 11.1333 18.47 11.32 18.47 11.52V21.76H15.6V11.52C15.6 11.32 15.5633 11.1333 15.49 10.96C15.4167 10.7867 15.3133 10.6367 15.18 10.51C15.0533 10.3767 14.9033 10.2733 14.73 10.2C14.5567 10.1267 14.37 10.09 14.17 10.09C13.97 10.09 13.7833 10.1267 13.61 10.2C13.4367 10.2733 13.2833 10.3767 13.15 10.51C13.0233 10.6367 12.9233 10.7867 12.85 10.96C12.7767 11.1333 12.74 11.32 12.74 11.52V21.76H9.87V11.52C9.87 10.9267 9.98 10.37 10.2 9.85C10.4267 9.32333 10.7333 8.86667 11.12 8.48C11.5133 8.08667 11.97 7.78 12.49 7.56C13.0167 7.33333 13.5767 7.22 14.17 7.22C14.7033 7.22 15.2167 7.31667 15.71 7.51C16.2033 7.69667 16.6467 7.97 17.04 8.33C17.4333 7.97 17.8733 7.69667 18.36 7.51C18.8533 7.31667 19.3667 7.22 19.9 7.22C20.4933 7.22 21.05 7.33333 21.57 7.56C22.0967 7.78 22.5533 8.08667 22.94 8.48C23.3333 8.86667 23.64 9.32333 23.86 9.85C24.0867 10.37 24.2 10.9267 24.2 11.52V21.76Z" fill="url(#paint0_linear_167_7)"/>
<path d="M35.21 16.03V13.16C35.21 12.7667 35.1333 12.3967 34.98 12.05C34.8333 11.6967 34.63 11.39 34.37 11.13C34.11 10.87 33.8033 10.6667 33.45 10.52C33.1033 10.3667 32.7333 10.29 32.34 10.29C31.9467 10.29 31.5733 10.3667 31.22 10.52C30.8733 10.6667 30.57 10.87 30.31 11.13C30.05 11.39 29.8433 11.6967 29.69 12.05C29.5433 12.3967 29.47 12.7667 29.47 13.16V16.03H35.21ZM38.08 21.76H35.21V18.89H29.47V21.76H26.61V13.16C26.61 12.3667 26.76 11.6233 27.06 10.93C27.36 10.23 27.7667 9.62 28.28 9.1C28.8 8.58 29.4067 8.17 30.1 7.87C30.8 7.57 31.5467 7.42 32.34 7.42C33.1333 7.42 33.8767 7.57 34.57 7.87C35.27 8.17 35.88 8.58 36.4 9.1C36.92 9.62 37.33 10.23 37.63 10.93C37.93 11.6233 38.08 12.3667 38.08 13.16V21.76Z" fill="url(#paint1_linear_167_7)"/>
<path d="M23.01 27.58L18.3 41.92H15.43L10.74 27.58H14L16.86 37.15L19.73 27.58H23.01Z" fill="url(#paint2_linear_167_7)"/>
<path d="M35.86 41.92H32.79L27.26 32.48V41.92H24.39V27.58H27.46L32.99 37.03V27.58H35.86V41.92Z" fill="url(#paint3_linear_167_7)"/>
<defs>
<linearGradient id="paint0_linear_167_7" x1="10.72" y1="35.8443" x2="37.2956" y2="35.5214" gradientUnits="userSpaceOnUse">
<stop offset="0.2" stop-color="#00FF99"/>
<stop offset="0.8" stop-color="#00FF3C"/>
</linearGradient>
<linearGradient id="paint1_linear_167_7" x1="10.72" y1="35.8443" x2="37.2956" y2="35.5214" gradientUnits="userSpaceOnUse">
<stop offset="0.2" stop-color="#00FF99"/>
<stop offset="0.8" stop-color="#00FF3C"/>
</linearGradient>
<linearGradient id="paint2_linear_167_7" x1="10.72" y1="35.8443" x2="37.2956" y2="35.5214" gradientUnits="userSpaceOnUse">
<stop offset="0.2" stop-color="#00FF99"/>
<stop offset="0.8" stop-color="#00FF3C"/>
</linearGradient>
<linearGradient id="paint3_linear_167_7" x1="10.72" y1="35.8443" x2="37.2956" y2="35.5214" gradientUnits="userSpaceOnUse">
<stop offset="0.2" stop-color="#00FF99"/>
<stop offset="0.8" stop-color="#00FF3C"/>
</linearGradient>
</defs>
</svg>
