<svg width="16" height="16" viewBox="0 0 16 16" fill="none" xmlns="http://www.w3.org/2000/svg">
<path d="M16 8C16 12.4183 12.4183 16 8 16C3.58172 16 0 12.4183 0 8C0 3.58172 3.58172 0 8 0C12.4183 0 16 3.58172 16 8Z" fill="#003CFF"/>
<path d="M8.06667 7.25333H7.11333V3.84C7.11333 3.77333 7.1 3.71111 7.07333 3.65333C7.04889 3.59556 7.01444 3.54556 6.97 3.50333C6.92778 3.45889 6.87778 3.42444 6.82 3.4C6.76222 3.37556 6.7 3.36333 6.63333 3.36333C6.56667 3.36333 6.50444 3.37556 6.44667 3.4C6.38889 3.42444 6.33778 3.45889 6.29333 3.50333C6.25111 3.54556 6.21778 3.59556 6.19333 3.65333C6.16889 3.71111 6.15667 3.77333 6.15667 3.84V7.25333H5.2V3.84C5.2 3.77333 5.18778 3.71111 5.16333 3.65333C5.13889 3.59556 5.10444 3.54556 5.06 3.50333C5.01778 3.45889 4.96778 3.42444 4.91 3.4C4.85222 3.37556 4.79 3.36333 4.72333 3.36333C4.65667 3.36333 4.59444 3.37556 4.53667 3.4C4.47889 3.42444 4.42778 3.45889 4.38333 3.50333C4.34111 3.54556 4.30778 3.59556 4.28333 3.65333C4.25889 3.71111 4.24667 3.77333 4.24667 3.84V7.25333H3.29V3.84C3.29 3.64222 3.32667 3.45667 3.4 3.28333C3.47556 3.10778 3.57778 2.95556 3.70667 2.82667C3.83778 2.69556 3.99 2.59333 4.16333 2.52C4.33889 2.44444 4.52556 2.40667 4.72333 2.40667C4.90111 2.40667 5.07222 2.43889 5.23667 2.50333C5.40111 2.56556 5.54889 2.65667 5.68 2.77667C5.81111 2.65667 5.95778 2.56556 6.12 2.50333C6.28444 2.43889 6.45556 2.40667 6.63333 2.40667C6.83111 2.40667 7.01667 2.44444 7.19 2.52C7.36556 2.59333 7.51778 2.69556 7.64667 2.82667C7.77778 2.95556 7.88 3.10778 7.95333 3.28333C8.02889 3.45667 8.06667 3.64222 8.06667 3.84V7.25333Z" fill="url(#paint0_linear_167_7)"/>
<path d="M11.7367 5.34333V4.38667C11.7367 4.25556 11.7111 4.13222 11.66 4.01667C11.6111 3.89889 11.5433 3.79667 11.4567 3.71C11.37 3.62333 11.2678 3.55556 11.15 3.50667C11.0344 3.45556 10.9111 3.43 10.78 3.43C10.6489 3.43 10.5244 3.45556 10.4067 3.50667C10.2911 3.55556 10.19 3.62333 10.1033 3.71C10.0167 3.79667 9.94778 3.89889 9.89667 4.01667C9.84778 4.13222 9.82333 4.25556 9.82333 4.38667V5.34333H11.7367ZM12.6933 7.25333H11.7367V6.29667H9.82333V7.25333H8.87V4.38667C8.87 4.12222 8.92 3.87444 9.02 3.64333C9.12 3.41 9.25556 3.20667 9.42667 3.03333C9.6 2.86 9.80222 2.72333 10.0333 2.62333C10.2667 2.52333 10.5156 2.47333 10.78 2.47333C11.0444 2.47333 11.2922 2.52333 11.5233 2.62333C11.7567 2.72333 11.96 2.86 12.1333 3.03333C12.3067 3.20667 12.4433 3.41 12.5433 3.64333C12.6433 3.87444 12.6933 4.12222 12.6933 4.38667V7.25333Z" fill="url(#paint1_linear_167_7)"/>
<path d="M7.67 9.19333L6.1 13.9733H5.14333L3.58 9.19333H4.66667L5.62 12.3833L6.57667 9.19333H7.67Z" fill="url(#paint2_linear_167_7)"/>
<path d="M11.9533 13.9733H10.93L9.08667 10.8267V13.9733H8.13V9.19333H9.15333L10.9967 12.3433V9.19333H11.9533V13.9733Z" fill="url(#paint3_linear_167_7)"/>
<defs>
<linearGradient id="paint0_linear_167_7" x1="3.57333" y1="11.9481" x2="12.4319" y2="11.8405" gradientUnits="userSpaceOnUse">
<stop offset="0.2" stop-color="#00FF99"/>
<stop offset="0.8" stop-color="#00FF3C"/>
</linearGradient>
<linearGradient id="paint1_linear_167_7" x1="3.57333" y1="11.9481" x2="12.4319" y2="11.8405" gradientUnits="userSpaceOnUse">
<stop offset="0.2" stop-color="#00FF99"/>
<stop offset="0.8" stop-color="#00FF3C"/>
</linearGradient>
<linearGradient id="paint2_linear_167_7" x1="3.57333" y1="11.9481" x2="12.4319" y2="11.8405" gradientUnits="userSpaceOnUse">
<stop offset="0.2" stop-color="#00FF99"/>
<stop offset="0.8" stop-color="#00FF3C"/>
</linearGradient>
<linearGradient id="paint3_linear_167_7" x1="3.57333" y1="11.9481" x2="12.4319" y2="11.8405" gradientUnits="userSpaceOnUse">
<stop offset="0.2" stop-color="#00FF99"/>
<stop offset="0.8" stop-color="#00FF3C"/>
</linearGradient>
</defs>
</svg>
