<svg width="33" height="32" viewBox="0 0 33 32" fill="none" xmlns="http://www.w3.org/2000/svg">
<path d="M33 16C33 24.8366 25.6127 32 16.5 32C7.3873 32 0 24.8366 0 16C0 7.16344 7.3873 0 16.5 0C25.6127 0 33 7.16344 33 16Z" fill="#003CFF"/>
<path d="M16.6375 14.5067H14.6713V7.68C14.6713 7.54667 14.6438 7.42222 14.5888 7.30667C14.5383 7.19111 14.4673 7.09111 14.3756 7.00667C14.2885 6.91778 14.1854 6.84889 14.0663 6.8C13.9471 6.75111 13.8188 6.72667 13.6813 6.72667C13.5438 6.72667 13.4154 6.75111 13.2963 6.8C13.1771 6.84889 13.0717 6.91778 12.98 7.00667C12.8929 7.09111 12.8242 7.19111 12.7738 7.30667C12.7233 7.42222 12.6981 7.54667 12.6981 7.68V14.5067H10.725V7.68C10.725 7.54667 10.6998 7.42222 10.6494 7.30667C10.599 7.19111 10.5279 7.09111 10.4363 7.00667C10.3492 6.91778 10.246 6.84889 10.1269 6.8C10.0077 6.75111 9.87938 6.72667 9.74188 6.72667C9.60438 6.72667 9.47604 6.75111 9.35688 6.8C9.23771 6.84889 9.13229 6.91778 9.04063 7.00667C8.95354 7.09111 8.88479 7.19111 8.83438 7.30667C8.78396 7.42222 8.75875 7.54667 8.75875 7.68V14.5067H6.78563V7.68C6.78563 7.28444 6.86125 6.91333 7.0125 6.56667C7.16833 6.21556 7.37917 5.91111 7.645 5.65333C7.91542 5.39111 8.22938 5.18667 8.58688 5.04C8.94896 4.88889 9.33396 4.81333 9.74188 4.81333C10.1085 4.81333 10.4615 4.87778 10.8006 5.00667C11.1398 5.13111 11.4446 5.31333 11.715 5.55333C11.9854 5.31333 12.2879 5.13111 12.6225 5.00667C12.9617 4.87778 13.3146 4.81333 13.6813 4.81333C14.0892 4.81333 14.4719 4.88889 14.8294 5.04C15.1915 5.18667 15.5054 5.39111 15.7713 5.65333C16.0417 5.91111 16.2525 6.21556 16.4038 6.56667C16.5596 6.91333 16.6375 7.28444 16.6375 7.68V14.5067Z" fill="url(#paint0_linear_167_7)"/>
<path d="M24.2069 10.6867V8.77333C24.2069 8.51111 24.1542 8.26444 24.0488 8.03333C23.9479 7.79778 23.8081 7.59333 23.6294 7.42C23.4506 7.24667 23.2398 7.11111 22.9969 7.01333C22.7585 6.91111 22.5042 6.86 22.2338 6.86C21.9633 6.86 21.7067 6.91111 21.4638 7.01333C21.2254 7.11111 21.0169 7.24667 20.8381 7.42C20.6594 7.59333 20.5173 7.79778 20.4119 8.03333C20.311 8.26444 20.2606 8.51111 20.2606 8.77333V10.6867H24.2069ZM26.18 14.5067H24.2069V12.5933H20.2606V14.5067H18.2944V8.77333C18.2944 8.24444 18.3975 7.74889 18.6038 7.28667C18.81 6.82 19.0896 6.41333 19.4425 6.06667C19.8 5.72 20.2171 5.44667 20.6938 5.24667C21.175 5.04667 21.6883 4.94667 22.2338 4.94667C22.7792 4.94667 23.2902 5.04667 23.7669 5.24667C24.2481 5.44667 24.6675 5.72 25.025 6.06667C25.3825 6.41333 25.6644 6.82 25.8706 7.28667C26.0769 7.74889 26.18 8.24444 26.18 8.77333V14.5067Z" fill="url(#paint1_linear_167_7)"/>
<path d="M15.8194 18.3867L12.5813 27.9467H10.6081L7.38375 18.3867H9.625L11.5913 24.7667L13.5644 18.3867H15.8194Z" fill="url(#paint2_linear_167_7)"/>
<path d="M24.6538 27.9467H22.5431L18.7413 21.6533V27.9467H16.7681V18.3867H18.8788L22.6806 24.6867V18.3867H24.6538V27.9467Z" fill="url(#paint3_linear_167_7)"/>
<defs>
<linearGradient id="paint0_linear_167_7" x1="7.37" y1="23.8962" x2="25.6406" y2="23.6673" gradientUnits="userSpaceOnUse">
<stop offset="0.2" stop-color="#00FF99"/>
<stop offset="0.8" stop-color="#00FF3C"/>
</linearGradient>
<linearGradient id="paint1_linear_167_7" x1="7.37" y1="23.8962" x2="25.6406" y2="23.6673" gradientUnits="userSpaceOnUse">
<stop offset="0.2" stop-color="#00FF99"/>
<stop offset="0.8" stop-color="#00FF3C"/>
</linearGradient>
<linearGradient id="paint2_linear_167_7" x1="7.37" y1="23.8962" x2="25.6406" y2="23.6673" gradientUnits="userSpaceOnUse">
<stop offset="0.2" stop-color="#00FF99"/>
<stop offset="0.8" stop-color="#00FF3C"/>
</linearGradient>
<linearGradient id="paint3_linear_167_7" x1="7.37" y1="23.8962" x2="25.6406" y2="23.6673" gradientUnits="userSpaceOnUse">
<stop offset="0.2" stop-color="#00FF99"/>
<stop offset="0.8" stop-color="#00FF3C"/>
</linearGradient>
</defs>
</svg>
